<svg width="40" height="41" viewBox="0 0 40 41" fill="none" xmlns="http://www.w3.org/2000/svg">
<path d="M33.75 6.63477H6.25C5.58696 6.63477 4.95107 6.89816 4.48223 7.367C4.01339 7.83584 3.75 8.47172 3.75 9.13477V29.1348C3.75 29.7978 4.01339 30.4337 4.48223 30.9025C4.95107 31.3714 5.58696 31.6348 6.25 31.6348H15.6922L17.8297 35.3754C18.0484 35.7579 18.3643 36.0758 18.7454 36.297C19.1266 36.5181 19.5594 36.6345 20 36.6345C20.4406 36.6345 20.8734 36.5181 21.2546 36.297C21.6357 36.0758 21.9516 35.7579 22.1703 35.3754L24.3078 31.6348H33.75C34.413 31.6348 35.0489 31.3714 35.5178 30.9025C35.9866 30.4337 36.25 29.7978 36.25 29.1348V9.13477C36.25 8.47172 35.9866 7.83584 35.5178 7.367C35.0489 6.89816 34.413 6.63477 33.75 6.63477ZM33.75 29.1348H23.5828C23.3615 29.1328 23.1436 29.1896 22.9515 29.2994C22.7593 29.4092 22.5997 29.5681 22.4891 29.7598L19.9891 34.1348L17.4891 29.7598C17.3784 29.5681 17.2188 29.4092 17.0267 29.2994C16.8345 29.1896 16.6166 29.1328 16.3953 29.1348H6.25V9.13477H33.75V29.1348Z" fill="#0E9C14"/>
</svg>
