<svg width="41" height="40" viewBox="0 0 41 40" fill="none" xmlns="http://www.w3.org/2000/svg">
<path d="M22.1914 28.125C22.1914 28.4958 22.0814 28.8584 21.8754 29.1667C21.6694 29.475 21.3766 29.7154 21.0339 29.8573C20.6913 29.9992 20.3143 30.0363 19.9506 29.964C19.5869 29.8916 19.2528 29.713 18.9906 29.4508C18.7284 29.1886 18.5498 28.8545 18.4774 28.4908C18.4051 28.1271 18.4422 27.7501 18.5841 27.4075C18.7261 27.0649 18.9664 26.772 19.2747 26.566C19.5831 26.36 19.9456 26.25 20.3164 26.25C20.8137 26.25 21.2906 26.4475 21.6422 26.7992C21.9939 27.1508 22.1914 27.6277 22.1914 28.125ZM20.3164 11.25C16.8695 11.25 14.0664 13.7734 14.0664 16.875V17.5C14.0664 17.8315 14.1981 18.1495 14.4325 18.3839C14.667 18.6183 14.9849 18.75 15.3164 18.75C15.6479 18.75 15.9659 18.6183 16.2003 18.3839C16.4347 18.1495 16.5664 17.8315 16.5664 17.5V16.875C16.5664 15.1562 18.2492 13.75 20.3164 13.75C22.3836 13.75 24.0664 15.1562 24.0664 16.875C24.0664 18.5938 22.3836 20 20.3164 20C19.9849 20 19.667 20.1317 19.4325 20.3661C19.1981 20.6005 19.0664 20.9185 19.0664 21.25V22.5C19.0664 22.8315 19.1981 23.1495 19.4325 23.3839C19.667 23.6183 19.9849 23.75 20.3164 23.75C20.6479 23.75 20.9659 23.6183 21.2003 23.3839C21.4347 23.1495 21.5664 22.8315 21.5664 22.5V22.3875C24.4164 21.8641 26.5664 19.5906 26.5664 16.875C26.5664 13.7734 23.7633 11.25 20.3164 11.25ZM36.5664 20C36.5664 23.2139 35.6134 26.3557 33.8278 29.028C32.0422 31.7003 29.5043 33.7831 26.535 35.013C23.5657 36.243 20.2984 36.5648 17.1462 35.9378C13.994 35.3107 11.0985 33.7631 8.82593 31.4905C6.55332 29.2179 5.00566 26.3224 4.37865 23.1702C3.75164 20.018 4.07345 16.7507 5.30337 13.7814C6.5333 10.8121 8.6161 8.27419 11.2884 6.48862C13.9607 4.70305 17.1025 3.75 20.3164 3.75C24.6248 3.75455 28.7554 5.46806 31.8019 8.51454C34.8484 11.561 36.5619 15.6916 36.5664 20ZM34.0664 20C34.0664 17.2805 33.26 14.6221 31.7491 12.3609C30.2383 10.0997 28.0908 8.33736 25.5783 7.29666C23.0658 6.25595 20.3012 5.98366 17.6339 6.5142C14.9667 7.04475 12.5167 8.35431 10.5937 10.2773C8.67072 12.2003 7.36116 14.6503 6.83062 17.3175C6.30007 19.9847 6.57236 22.7494 7.61307 25.2619C8.65377 27.7744 10.4161 29.9218 12.6773 31.4327C14.9385 32.9436 17.5969 33.75 20.3164 33.75C23.9619 33.7459 27.4568 32.2959 30.0346 29.7182C32.6123 27.1404 34.0623 23.6455 34.0664 20Z" fill="#868823"/>
</svg>
